HIERARCHY
ROOT Hips
{
  OFFSET 90.7885 88.945 -76.2838
  CHANNELS 6 Xposition Yposition Zposition Zrotation Xrotation Yrotation
  JOINT LeftUpLeg
  {
    OFFSET 8.64259 1.95398 -2.38835
    CHANNELS 3 Zrotation Xrotation Yrotation
    JOINT LeftLeg
    {
      OFFSET 43.7702 0 0
      CHANNELS 3 Zrotation Xrotation Yrotation
      JOINT LeftFoot
      {
        OFFSET 40.6238 0 0
        CHANNELS 3 Zrotation Xrotation Yrotation
        JOINT LeftToeBase
        {
          OFFSET 12.7242 0 0
          CHANNELS 3 Zrotation Xrotation Yrotation
          End Site
          {
            OFFSET 0 0 0
          }
        }
      }
    }
  }
  JOINT RightUpLeg
  {
    OFFSET -8.2249 1.95398 -2.59336
    CHANNELS 3 Zrotation Xrotation Yrotation
    JOINT RightLeg
    {
      OFFSET 43.5653 0 0
      CHANNELS 3 Zrotation Xrotation Yrotation
      JOINT RightFoot
      {
        OFFSET 40.6238 0 0
        CHANNELS 3 Zrotation Xrotation Yrotation
        JOINT RightToeBase
        {
          OFFSET 12.7242 0 0
          CHANNELS 3 Zrotation Xrotation Yrotation
          End Site
          {
            OFFSET 0 0 0
          }
        }
      }
    }
  }
  JOINT Spine
  {
    OFFSET 0.165834 0.87714 6.61349
    CHANNELS 3 Zrotation Xrotation Yrotation
    JOINT Spine1
    {
      OFFSET 7.38963 1.71661e-005 0
      CHANNELS 3 Zrotation Xrotation Yrotation
      JOINT Spine2
      {
        OFFSET 11.9445 1.14441e-005 0
        CHANNELS 3 Zrotation Xrotation Yrotation
        JOINT Spine3
        {
          OFFSET 14.7254 4.19617e-005 0
          CHANNELS 3 Zrotation Xrotation Yrotation
          JOINT Spine4
          {
            OFFSET 10.9679 0 0
            CHANNELS 3 Zrotation Xrotation Yrotation
            JOINT RightShoulder
            {
              OFFSET 2.46616 -1.6653 3.69651
              CHANNELS 3 Zrotation Xrotation Yrotation
              JOINT RightArm
              {
                OFFSET 13.0012 0 0
                CHANNELS 3 Zrotation Xrotation Yrotation
                JOINT RightForeArm
                {
                  OFFSET 28.7848 1.52588e-005 0
                  CHANNELS 3 Zrotation Xrotation Yrotation
                  JOINT RightHand
                  {
                    OFFSET 26.5688 1.52588e-005 0
                    CHANNELS 3 Zrotation Xrotation Yrotation
                    End Site
                    {
                      OFFSET 0 0 0
                    }
                  }
                }
              }
            }
            JOINT LeftShoulder
            {
              OFFSET 2.38034 -1.29275 -3.7523
              CHANNELS 3 Zrotation Xrotation Yrotation
              JOINT LeftArm
              {
                OFFSET 16.3182 6.10352e-005 0
                CHANNELS 3 Zrotation Xrotation Yrotation
                JOINT LeftForeArm
                {
                  OFFSET 27.0901 0 0
                  CHANNELS 3 Zrotation Xrotation Yrotation
                  JOINT LeftHand
                  {
                    OFFSET 24.5451 1.52588e-005 0
                    CHANNELS 3 Zrotation Xrotation Yrotation
                    End Site
                    {
                      OFFSET 0 0 0
                    }
                  }
                }
              }
            }
            JOINT Neck
            {
              OFFSET 5.0226 -0.0266342 0
              CHANNELS 3 Zrotation Xrotation Yrotation
              JOINT Head
              {
                OFFSET 6.69363 2.86102e-005 0
                CHANNELS 3 Zrotation Xrotation Yrotation
                End Site
                {
                  OFFSET 0 0 0
                }
              }
            }
          }
        }
      }
    }
  }
}
MOTION
Frames:	7
Frame Time:	0.0416667
-210.637 98.2307 -189.622 -101.554 42.7382 -82.5416 -174.806 1.87006 94.5458 -18.2125 5.68137 -0.619072 66.1743 3.43343 -0.364794 25.1445 -0.387555 1.1617 169.107 0.0634627 87.6386 -20.5773 -4.1737 0.901674 71.1261 -5.82217 -1.58414 14.6209 -0.715623 3.86176 0.257159 8.20582 -89.9977 10.4624 0.513392 -0.0408667 -1.2084 0.511084 -0.0634294 -23.7444 0.50193 0.115327 -3.73172 0.501929 0.115319 90.0551 -29.7319 -106.753 41.8167 -12.3239 -1.36755 0.488792 -23.5227 -20.7891 -24.1348 -0.285491 -9.80443 -90.5656 -58.0861 79.5633 -15.2846 18.6959 -8.7852 7.07485 11.269 -16.3929 -1.4991 -0.113966 -7.34413 9.12564 -1.15398 -1.89852 -2.76163 -0.705616 -1.23592 
-210.648 98.2141 -189.502 -100.808 42.7207 -82.5191 -174.409 3.05602 95.1893 -19.0824 6.38681 -0.88456 65.8432 3.27935 0.317351 26.0958 0.467139 -0.185253 169.611 0.497544 88.3554 -20.3555 -3.68586 0.882616 70.8002 -5.66173 -1.76838 14.6296 -0.761288 3.93828 0.224581 8.15023 -90.0212 10.5737 0.4376 -0.0815269 -1.09722 0.43361 -0.100713 -23.633 0.441881 0.0537574 -3.62031 0.441878 0.0537651 89.8042 -29.9621 -107.161 41.9085 -12.1666 -1.09118 0.272777 -24.2423 -20.6422 -23.3661 -0.177251 -10.8417 -90.5218 -57.4476 79.4996 -15.0978 18.5556 -8.97539 7.41794 11.1028 -17.1011 -1.54869 -0.1114 -7.27298 9.11319 -1.08672 -2.33058 -2.74809 -0.549425 -0.747125 
-210.895 98.2453 -189.334 -100.942 43.1656 -82.6443 -174.617 2.49391 94.6993 -18.5114 5.47083 -0.909257 66.3245 3.48944 -0.30077 24.8856 -0.160156 0.890726 169.42 0.6089 87.8879 -20.4977 -4.2267 0.751781 70.8338 -5.64276 -1.58511 14.7429 -0.799278 3.99073 0.236757 8.18762 -89.9917 10.4988 0.475407 -0.0258193 -1.1721 0.473837 -0.0467281 -23.7079 0.461177 0.118258 -3.69529 0.4612 0.118255 89.7988 -30.1371 -107.104 41.5517 -12.1912 -1.09196 0.78411 -23.8975 -20.1332 -23.7567 -0.202414 -10.4603 -90.4137 -57.0477 79.5712 -14.9577 18.0103 -9.47109 8.07712 11.7219 -17.9008 -1.36158 -0.119133 -7.63374 9.55126 -0.916723 -2.17294 -3.04362 -0.406244 -0.842479 
-211.022 98.2481 -188.996 -100.664 43.7483 -82.6923 -174.721 3.07892 94.539 -18.9812 5.18278 -1.00304 65.9177 3.24316 0.483286 24.8402 0.604923 -0.152542 169.559 1.26078 87.9774 -20.7452 -4.77955 0.621412 70.5407 -5.64451 -1.80241 14.7673 -0.860161 4.09318 0.235654 8.18482 -90.0203 10.5045 0.460121 -0.0813351 -1.16635 0.456097 -0.101516 -23.7022 0.463277 0.060711 -3.68952 0.463286 0.0607088 90.2851 -30.8671 -105.88 40.7398 -12.636 -1.78074 0.977488 -24.5404 -19.6832 -24.2494 -0.266485 -10.2019 -90.5016 -57.4597 79.5294 -14.2944 17.3189 -9.72003 9.01834 13.2128 -18.5605 -2.62075 -0.0838213 -7.38381 9.63135 -0.604435 -1.49828 -3.11971 -0.241971 -1.48005 
-210.578 97.9117 -188.308 -100.427 44.7969 -82.8854 -174.705 5.11258 94.4003 -21.5192 4.85316 -1.44393 66.2565 3.0357 0.852327 23.6945 0.462494 0.235721 169.616 4.23468 87.7905 -24.6273 -5.99038 0.652425 70.6689 -6.05059 -2.38192 14.4017 -0.818792 4.06456 0.322866 8.22599 -90.0783 10.4224 0.607313 -0.209162 -1.2484 0.59753 -0.235693 -23.7847 0.642105 -0.0169583 -3.77202 0.642102 -0.0169622 90.9303 -29.7172 -105.018 40.9887 -12.7397 -1.86142 0.741131 -24.9999 -19.4505 -24.3246 -0.258936 -10.3902 -90.7034 -57.7255 79.3039 -14.5054 17.1248 -9.61943 8.99624 11.8825 -19.0631 -1.04405 -0.120518 -6.99604 10.8386 -0.456381 -0.407133 -3.73691 -0.316588 -2.10879 
-209.184 97.1318 -186.853 -99.075 45.5419 -84.8936 -175.329 9.21343 93.2467 -25.1918 3.95152 -1.79431 66.3982 2.79494 0.968615 23.1592 0.674659 0.0518008 169.402 11.3769 86.8676 -32.7351 -8.47644 0.697154 70.4466 -6.00524 -2.56898 14.307 -0.705426 3.88025 0.38921 8.37236 -89.9839 10.1294 0.783037 -0.0338715 -1.54126 0.780772 -0.0682963 -24.0782 0.757004 0.203048 -4.06558 0.756996 0.203046 90.6709 -29.5286 -105.599 40.0842 -11.866 -2.06225 -0.585613 -25.132 -21.3203 -23.4044 -0.209445 -10.9777 -90.4606 -57.1272 79.5218 -14.9566 16.335 -7.7874 9.90356 8.2889 -23.5578 0.605571 -0.168579 -7.37198 14.4119 0.0197519 1.06069 -4.44463 -0.212003 -2.26608 
-206.537 95.9447 -184.426 -94.3653 43.5657 -90.3384 -176.17 17.4504 90.9185 -29.2764 5.81033 -2.27206 64.2406 1.98369 2.10645 22.6781 0.382903 0.515305 169.634 21.3738 85.2148 -39.8781 -10.4593 0.593538 68.2239 -4.70778 -2.21874 14.8253 -0.534146 3.52276 0.362485 8.51004 -89.851 9.85289 0.790332 0.231851 -1.81783 0.79974 0.196844 -24.3543 0.684107 0.458669 -4.34168 0.684084 0.458665 89.9821 -28.7072 -107.301 38.893 -10.5541 -2.14482 -1.96403 -27.1641 -22.0531 -22.9487 -0.243247 -11.6695 -90.506 -56.7352 79.3827 -14.9799 14.5329 -6.39862 11.6001 7.06922 -28.0513 1.21768 -0.206391 -8.09456 21.1476 0.0773115 3.82769 -4.73924 -1.09993 -3.30288 
